<?xml version="1.0" encoding="UTF-8"?>
<!DOCTYPE svg PUBLIC "-//W3C//DTD SVG 1.1//EN" "http://www.w3.org/Graphics/SVG/1.1/DTD/svg11.dtd">
<!-- Creator: CorelDRAW -->
<svg xmlns="http://www.w3.org/2000/svg" xml:space="preserve" width="6.06299in" height="3.93701in" version="1.1" style="shape-rendering:geometricPrecision; text-rendering:geometricPrecision; image-rendering:optimizeQuality; fill-rule:evenodd; clip-rule:evenodd"
viewBox="0 0 5824.96 3782.44"
 xmlns:xlink="http://www.w3.org/1999/xlink"
 xmlns:xodm="http://www.corel.com/coreldraw/odm/2003">
 <defs>
  <style type="text/css">
   <![CDATA[
    .fil0 {fill:#FEFEFE}
    .fil2 {fill:#00A9A4}
    .fil1 {fill:#00357C;fill-rule:nonzero}
    .fil3 {fill:#00A9A4;fill-rule:nonzero}
   ]]>
  </style>
 </defs>
 <g id="Layer_x0020_1">
  <metadata id="CorelCorpID_0Corel-Layer"/>
  <rect class="fil0" x="-0" width="5824.96" height="3782.44" rx="142.84" ry="236.4"/>
  <g id="_2095311065696">
   <path class="fil1" d="M928.72 3185.78c0,-96.31 26.75,-170.63 80.13,-222.82 50.65,-49.55 112.57,-68.97 182.46,-68.14 69.89,-0.82 131.81,18.59 182.46,68.14 41.08,40.17 66.39,93.45 75.87,159.77l-124.76 0c-5.86,-31.71 -16.46,-58.04 -31.77,-78.93 -24.88,-33.9 -58.73,-50.78 -101.8,-50.78 -43.07,0 -76.92,16.88 -101.8,50.78 -24.75,33.77 -37.19,81.73 -37.19,143.64 0,61.91 13.11,108.34 39.2,139.17 26.2,30.8 59.32,46.3 99.79,46.3 40.47,0 73.59,-15.5 99.79,-46.3 15.64,-18.48 26.61,-42.58 32.89,-72.24l124.67 0c-9.32,57.38 -31.09,104.72 -65.26,141.95 -46.67,50.6 -110.66,76.05 -192.09,76.35 -81.43,-0.3 -145.42,-25.75 -192.09,-76.35 -46.96,-51.17 -70.5,-121.39 -70.5,-210.54zm2689.53 -11.06c-8.44,0 -15.34,-6.53 -15.34,-14.52l0 -51.3c0,-19.11 30.68,-19.11 30.68,0l0 51.3c0,7.99 -6.9,14.52 -15.34,14.52zm0 297.87c70.41,0.25 140.79,-14.5 191.49,-63.85 115.92,-103.98 119.67,-348.11 0,-451.55 -41.74,-40.62 -96.68,-57.8 -154.88,-62.49l0 98.52c31.9,6.4 58.46,22.01 79.7,46.83 81.67,95.61 53.55,335.98 -116.31,335.98 -172.34,0 -197.27,-241.21 -116.31,-335.98 21.24,-24.82 47.79,-40.43 79.7,-46.83l0 -98.52c-58.2,4.69 -113.14,21.87 -154.88,62.49 -119.67,103.44 -115.92,347.57 0,451.55 50.71,49.35 121.08,64.1 191.49,63.85zm0 -134.51c104.02,0.59 124.11,-99.12 118.35,-178.68l-82.09 0c0,42.74 -72.52,42.74 -72.52,0l-82.09 0c-5.76,79.56 14.33,179.27 118.35,178.68zm15.69 -309.59c58.56,5.59 88.6,49.05 98.79,101.18l-78.22 0c0,-19.2 3.49,-39.16 -20.57,-49.24l0 -51.94zm-31.38 0c-58.56,5.59 -88.6,49.05 -98.79,101.18l78.22 0c0,-19.2 -3.49,-39.16 20.57,-49.24l0 -51.94zm340.29 167.28l218.31 0 0 105.95 -218.31 0 0 -105.95zm419.77 276.9l-119.59 0 0 -577.89 119.59 0 0 577.89zm533.61 -577.89l0 101.94 -173.37 0 0 475.96 -121.2 0 0 -475.96 -173.36 0 0 -101.94 467.93 0zm-3227.17 359.58l181.61 0 -90.81 -213.92 -90.8 213.92zm29.78 -359.58l122.85 0 245.3 577.89 -123.65 0 -50.42 -118.79 -266.1 0 -47.18 118.79 -125.75 0 244.95 -577.89zm851.45 -0l119.59 0 0 577.89 -119.59 0c0,-161.64 0,-134.54 0,-296.15l-125.71 296.15 -68.03 0 -125.71 -296.15c0,161.61 0,134.51 0,296.15l-119.59 0 0 -577.89 119.59 0 159.72 376.28 159.72 -376.29zm352.74 99.53l0 128.42 136.72 0c25.02,0 45.35,-4.82 61,-14.45 15.65,-9.63 23.41,-26.62 23.41,-51.1 0,-27.15 -10.3,-45.08 -31.03,-53.77 -17.79,-6.02 -40.54,-9.1 -68.22,-9.1l-121.88 0zm0 223.93l0 154.91 136.19 0c25.01,0 44.41,-3.48 58.33,-10.3 25.28,-12.57 37.85,-36.79 37.85,-72.5 0,-30.23 -12.17,-50.97 -36.65,-62.21 -13.64,-6.42 -32.91,-9.63 -57.52,-9.9l-138.2 0zm159.74 -323.46c70.49,1.07 120.39,21.54 149.69,61.54 17.66,24.61 26.49,54.04 26.49,88.29 0,35.31 -8.96,63.67 -26.76,85.08 -10.03,12.04 -24.61,23 -44.14,32.91 29.56,10.83 51.77,27.82 66.88,50.96 14.98,23.28 22.47,51.51 22.47,84.68 0,34.25 -8.56,65.01 -25.68,92.17 -10.97,18.06 -24.61,33.17 -40.93,45.48 -18.46,14.05 -40.13,23.68 -65.15,28.9 -25.15,5.22 -52.3,7.89 -81.6,7.89l-260.19 0 0 -577.89 278.92 0z"/>
   <path class="fil2" d="M3336.43 2509.38l-155.41 -366.12 -1247.99 0 -155.41 366.12 1519.85 0 0 41.84 -1519.85 0 0 31.38 1558.81 0 0 -73.22zm-955.39 -1371.65l0.12 115.67 139.53 -0.79 -0.06 -133.89 -139.59 19.01zm139.52 138.33l-139.42 -0.9 0.01 115.74 139.52 19.18 -0.11 -134.02zm24.98 -160.96l0 137.21 187.43 -1.49 0 -163.08 -187.43 27.35zm187.48 162.32l-187.74 -0.31 0.26 136.16 187.44 26.45 0.04 -162.3zm-960.97 -498.29l1569.97 0c20.21,0 36.7,16.49 36.7,36.7l0 942.91c0,20.2 -16.49,36.69 -36.7,36.69l-719.36 0 0 34.93c159.71,8.81 280.38,49.16 280.38,97.62 0,54.91 -154.91,99.42 -346.01,99.42 -191.1,0 -346.01,-44.51 -346.01,-99.42 0,-48.46 120.67,-88.81 280.38,-97.62l0 -34.93 -719.36 0c-20.21,0 -36.7,-16.49 -36.7,-36.69l0 -942.91c0,-20.21 16.49,-36.7 36.7,-36.7zm29.34 67.29l1511.27 0 0 834.63 -1511.27 0 0 -834.63zm931.58 -158.03l961.74 -375.17c10.44,-4.07 20.59,-4.53 31.36,-1.43l507.83 146.63c15.95,4.61 26.53,18.68 26.51,35.29 -0.47,530.29 -0.95,1061.53 -1.42,1590.92 -0.02,16.73 -10.8,30.89 -26.93,35.34l-495.72 136.93c-14.51,4.01 -28.68,1.68 -40.98,-7l-382.7 -270.07 0 -20.92 289.88 129.99 0.59 -716.86 0.76 -931.31 -870.92 268.58 0 -20.92zm1113.58 1000.22l0 -39.36 277.57 -0.74 0 25.08 -277.57 15.02zm0 -79.52l0 -40.06 277.57 -0.73 0 40.06 -277.57 0.74zm0 -81.1l0 -40.06 277.57 2.96 0 40.06 -277.57 -2.96zm0 -70.32l0 -40.08 277.57 7.78 0 40.08 -277.57 -7.78zm0 -82.01l0 -40.09 277.57 11.45 0 40.1 -277.57 -11.45zm0 -83.98l0 -40.12 277.57 14.94 0 40.12 -277.57 -14.94zm0 -83.82l0 -40.19 277.57 21.72 0 40.19 -277.57 -21.71zm0 -79.54l0 -40.19 277.57 21.72 -0.06 40.18 -277.51 -21.71zm139.77 655.44c29.89,0 54.1,24.22 54.1,54.1 0,29.88 -24.22,54.1 -54.1,54.1 -29.88,0 -54.1,-24.22 -54.1,-54.1 0,-29.89 24.22,-54.1 54.1,-54.1zm-174.11 -1028.39l346.25 26.91 -0.51 98.47 -345.75 18.81 0 -144.19zm-1622.95 1645.21l-16.69 66.95 768.92 0 -16.69 -66.95 -735.54 0zm888.62 -159l20.88 54.4 -178.53 0 -13.56 -54.4c57.07,0 114.14,0 171.21,0zm-131.56 159l87.37 0 21.75 66.95 -92.43 0 -16.69 -66.95zm109.32 0l83.28 0 25.7 66.95 -87.22 0 -21.75 -66.95zm105.58 0l90.08 0 28.42 66.95 -92.79 0 -25.7 -66.95zm-568.58 -225.64l1.59 45.71 -74.4 0 1.59 -45.71 71.22 0zm20.86 -0.01l71.12 -0.04 4.01 45.76 -73.53 0 -1.6 -45.73zm92.11 -0.05l71.03 -0.04 7.25 45.82 -74.28 0 -4.01 -45.78zm92.14 -0.05l70.75 -0.04 11.43 45.87 -74.93 0 -7.25 -45.83zm92.26 -0.05l70.29 -0.04 14.92 45.92 -73.77 0 -11.44 -45.88zm92.24 -0.05l69.95 -0.04 17.65 45.98 -72.67 0 -14.93 -45.94zm92.25 -0.05l80.89 -0.05 19.54 46.04 -82.77 0 -17.65 -45.99zm-479.53 66.91l1.9 54.4 -79.67 0 1.9 -54.4 75.87 0zm20.86 0l74.62 0 4.76 54.4 -77.48 0 -1.9 -54.4zm95.62 0l75.77 0 8.62 54.4 -79.63 0 -4.75 -54.4zm96.88 0l76.83 0 13.56 54.4 -81.78 0 -8.62 -54.4zm291.85 0l83.63 0 23.09 54.4 -85.83 0 -20.88 -54.4zm-502.58 75.32l2.19 62.77 -85.52 0 2.19 -62.77 81.13 0zm20.86 0l78.58 0 5.49 62.77 -81.88 0 -2.19 -62.77zm99.58 0l81.11 0 9.94 62.77 -85.56 0 -5.49 -62.77zm102.22 0l83.68 0 15.65 62.77 -89.39 0 -9.94 -62.77zm105.19 0l81.04 0 20.39 62.77 -85.79 0 -15.65 -62.77zm103 0l78.35 0 24.09 62.77 -82.04 0 -20.39 -62.77zm100.65 0l86.68 0 26.64 62.77 -89.23 0 -24.09 -62.77zm-961.34 83.69l-87.37 0 -21.75 66.95 92.43 0 16.69 -66.95zm-109.32 0l-83.28 0 -25.7 66.95 87.22 0 21.75 -66.95zm-105.58 0l-90.08 0 -28.42 66.95 92.79 0 25.7 -66.95zm547.72 -225.65l-71.12 -0.04 -4.01 45.76 73.53 0 1.6 -45.73zm-92.11 -0.05l-71.03 -0.04 -7.25 45.82 74.28 0 4.01 -45.78zm-92.14 -0.05l-70.75 -0.04 -11.43 45.87 74.93 0 7.25 -45.83zm-92.26 -0.05l-70.29 -0.04 -14.92 45.92 73.77 0 11.44 -45.88zm-92.24 -0.05l-69.95 -0.04 -17.65 45.98 72.67 0 14.93 -45.94zm-92.25 -0.05l-80.89 -0.05 -19.54 46.04 82.77 0 17.65 -45.99zm458.67 66.91l-74.62 0 -4.76 54.4 77.48 0 1.9 -54.4zm-95.62 0l-75.77 0 -8.62 54.4 79.63 0 4.75 -54.4zm-96.88 0l-76.83 0 -13.56 54.4 81.78 0 8.62 -54.4zm-98.34 0l-75.35 0 -17.68 54.4 79.46 0 13.56 -54.4zm-97.31 0l-73.91 0 -20.88 54.4 77.11 0 17.68 -54.4zm-96.21 0l-83.63 0 -23.09 54.4 85.83 0 20.88 -54.4zm481.72 75.32l-78.58 0 -5.49 62.77 81.88 0 2.19 -62.77zm-99.58 0l-81.11 0 -9.94 62.77 85.56 0 5.49 -62.77zm-102.22 0l-83.68 0 -15.65 62.77 89.39 0 9.94 -62.77zm-105.19 0l-81.04 0 -20.39 62.77 85.79 0 15.65 -62.77zm-103 0l-78.35 0 -24.09 62.77 82.04 0 20.39 -62.77zm-100.65 0l-86.68 0 -26.64 62.77 89.23 0 24.09 -62.77z"/>
   <path class="fil3" d="M3602.56 3028.5l0 -261.72c0,-33.13 13.51,-63.22 35.29,-85 21.78,-21.78 51.86,-35.29 85,-35.29l850.19 0c24.48,0 46.71,-9.99 62.81,-26.1 16.11,-16.11 26.1,-38.34 26.1,-62.81l0 -538.99c0,-24.48 -9.99,-46.71 -26.1,-62.81 -16.11,-16.11 -38.34,-26.1 -62.81,-26.1l-313.92 0 0 -31.38 313.92 0c33.14,0 63.22,13.51 85.01,35.3 21.79,21.78 35.29,51.86 35.29,85l0 538.99c0,33.14 -13.51,63.22 -35.29,85.01 -21.79,21.79 -51.87,35.29 -85.01,35.29l-850.19 0c-24.47,0 -46.7,9.99 -62.81,26.1 -16.11,16.11 -26.1,38.34 -26.1,62.81l0 261.72 -31.38 0z"/>
  </g>
 </g>
</svg>
