<?xml version="1.0" encoding="UTF-8"?>
<!DOCTYPE svg PUBLIC "-//W3C//DTD SVG 1.1//EN" "http://www.w3.org/Graphics/SVG/1.1/DTD/svg11.dtd">
<!-- Creator: CorelDRAW (Evaluation Version) -->
<svg xmlns="http://www.w3.org/2000/svg" xml:space="preserve" width="1.1811in" height="1.11698in" version="1.1" style="shape-rendering:geometricPrecision; text-rendering:geometricPrecision; image-rendering:optimizeQuality; fill-rule:evenodd; clip-rule:evenodd"
viewBox="0 0 200.47 189.59"
 xmlns:xlink="http://www.w3.org/1999/xlink"
 xmlns:xodm="http://www.corel.com/coreldraw/odm/2003">
 <defs>
  <style type="text/css">
   <![CDATA[
    .fil3 {fill:#00357C}
    .fil2 {fill:#00A9A4}
    .fil0 {fill:#00357C;fill-rule:nonzero}
    .fil1 {fill:#00A9A4;fill-rule:nonzero}
    .fil4 {fill:#00B3A1;fill-rule:nonzero}
   ]]>
  </style>
 </defs>
 <g id="Layer_x0020_1">
  <metadata id="CorelCorpID_0Corel-Layer"/>
  <g id="_1871782345872">
   <path class="fil0" d="M-0 148.2c0,-5.09 1.35,-9.02 4.05,-11.78 2.35,-2.4 5.33,-3.6 8.95,-3.6 4.85,0 8.4,1.61 10.64,4.83 1.24,1.8 1.91,3.62 1.99,5.43l-6.04 0c-0.38,-1.4 -0.89,-2.45 -1.49,-3.17 -1.09,-1.26 -2.7,-1.9 -4.83,-1.9 -2.18,0 -3.89,0.89 -5.14,2.68 -1.25,1.78 -1.88,4.32 -1.88,7.59 0,3.27 0.66,5.73 1.98,7.35 1.32,1.63 3,2.45 5.04,2.45 2.09,0 3.68,-0.7 4.78,-2.1 0.61,-0.75 1.11,-1.88 1.51,-3.38l6.04 0c-0.52,3.18 -1.85,5.77 -4,7.76 -2.14,1.99 -4.89,2.99 -8.25,2.99 -4.15,0 -7.41,-1.35 -9.78,-4.04 -2.37,-2.7 -3.56,-6.41 -3.56,-11.13zm135.83 7.98c1.73,0 3.12,-0.55 4.2,-1.91 1.37,-1.72 1.69,-4.23 1.69,-6.36 0,-0.42 -0.01,-0.86 -0.04,-1.3l-3.95 0 0 0.08c0,0.44 -0.19,0.84 -0.48,1.14 -0.34,0.34 -0.81,0.55 -1.35,0.55 -0.54,0 -1.01,-0.21 -1.35,-0.55 -0.3,-0.3 -0.48,-0.7 -0.48,-1.14l0 -0.08 -4.15 0c-0.03,0.44 -0.04,0.88 -0.04,1.3 0,2.14 0.33,4.63 1.72,6.35 1.1,1.36 2.49,1.93 4.23,1.93zm5.74 -10.63c-0.21,-1.45 -0.66,-2.88 -1.54,-3.99 -0.96,-1.2 -2.15,-1.78 -3.6,-1.9l0 2.69c0.32,0.09 0.6,0.25 0.82,0.47 0.3,0.3 0.48,0.7 0.48,1.14l0 1.6 3.84 0zm-6.2 -5.91c-1.53,0.09 -2.77,0.67 -3.77,1.91 -0.9,1.11 -1.35,2.54 -1.56,3.99l4.03 0 0 -1.6c0,-0.44 0.19,-0.84 0.48,-1.14 0.22,-0.22 0.5,-0.39 0.82,-0.47l0 -2.7zm16.93 8.91l11.03 0 0 5.35 -11.03 0 0 -5.35zm21.21 13.99l-6.04 0 0 -29.2 6.04 0 0 29.2zm26.96 -29.2l0 5.15 -8.76 0 0 24.05 -6.12 0 0 -24.05 -8.76 0 0 -5.15 23.64 0zm-161.97 18.17l7.46 0 -3.68 -11.49 -3.78 11.49zm0.41 -18.17l6.89 0 10.29 29.2 -6.61 0 -1.92 -6 -10.72 0 -1.98 6 -6.35 0 10.4 -29.2zm40.32 0l8.75 0 0 29.2 -5.64 0 0 -19.75c0,-0.57 0.01,-1.37 0.02,-2.39 0.01,-1.03 0.02,-1.81 0.02,-2.37l-5.56 24.5 -5.96 0 -5.52 -24.5c0,0.55 0.01,1.34 0.02,2.37 0.01,1.02 0.02,1.82 0.02,2.39l0 19.75 -5.64 0 0 -29.2 8.84 0 5.34 22.96 5.3 -22.96zm20.35 5.03l0 6.49 7.09 0c1.26,0 2.29,-0.24 3.08,-0.73 0.79,-0.49 1.18,-1.34 1.18,-2.58 0,-1.37 -0.52,-2.28 -1.57,-2.72 -0.9,-0.3 -2.05,-0.46 -3.45,-0.46l-6.34 0zm0 11.31l0 7.83 7.06 0c1.26,0 2.24,-0.18 2.95,-0.52 1.28,-0.63 1.91,-1.86 1.91,-3.66 0,-1.53 -0.62,-2.58 -1.85,-3.14 -0.69,-0.32 -1.66,-0.49 -2.91,-0.5l-7.16 0zm8.25 -16.34c3.56,0.05 6.08,1.09 7.56,3.11 0.89,1.24 1.34,2.73 1.34,4.46 0,1.78 -0.45,3.22 -1.35,4.3 -0.51,0.61 -1.24,1.16 -2.23,1.66 1.49,0.55 2.62,1.41 3.38,2.58 0.76,1.18 1.14,2.6 1.14,4.28 0,1.73 -0.43,3.29 -1.3,4.66 -0.55,0.91 -1.24,1.68 -2.07,2.3 -0.93,0.71 -2.03,1.2 -3.29,1.46 -1.27,0.26 -2.64,0.4 -4.12,0.4l-13.15 0 0 -29.2 14.09 0zm28 24.86c2.43,0 4.36,-0.89 5.79,-2.68 1.43,-1.79 2.14,-4.33 2.14,-7.62 0,-3.29 -0.71,-5.82 -2.14,-7.61 -1.07,-1.35 -2.43,-2.19 -4.08,-2.53 0.04,-0.84 0.09,-1.66 0.16,-2.46 0.08,-0.92 0.19,-1.83 0.33,-2.73 3.1,0.34 5.55,1.44 7.35,3.29 2.94,2.68 4.41,6.7 4.41,12.05 0,5.25 -1.47,9.26 -4.41,12.05 -2.21,2.27 -5.39,3.41 -9.56,3.41 -4.18,0 -7.36,-1.14 -9.57,-3.41 -2.95,-2.79 -4.43,-6.8 -4.43,-12.05 0,-5.35 1.48,-9.36 4.43,-12.05 2.04,-2.09 4.9,-3.22 8.6,-3.39 -0.12,0.82 -0.22,1.67 -0.3,2.54 -0.08,0.89 -0.14,1.79 -0.18,2.7 -1.76,0.29 -3.21,1.15 -4.35,2.56 -1.45,1.79 -2.17,4.33 -2.17,7.62 0,3.29 0.72,5.83 2.17,7.62 1.45,1.78 3.38,2.68 5.81,2.68z"/>
   <path class="fil1" d="M29.66 177.06c1.19,0 2.11,0.31 2.76,0.94 0.66,0.63 1.02,1.34 1.09,2.13l-1.24 0c-0.14,-0.6 -0.42,-1.08 -0.84,-1.44 -0.42,-0.35 -1.01,-0.53 -1.77,-0.53 -0.92,0 -1.67,0.33 -2.24,0.97 -0.57,0.65 -0.85,1.64 -0.85,2.99 0,1.1 0.26,1.99 0.77,2.67 0.51,0.68 1.28,1.03 2.3,1.03 0.94,0 1.65,-0.36 2.14,-1.08 0.26,-0.38 0.45,-0.88 0.58,-1.49l1.24 0c-0.11,0.99 -0.48,1.82 -1.1,2.49 -0.75,0.8 -1.75,1.21 -3.02,1.21 -1.09,0 -2.01,-0.33 -2.75,-0.99 -0.98,-0.87 -1.46,-2.22 -1.46,-4.04 0,-1.38 0.37,-2.52 1.1,-3.41 0.79,-0.96 1.88,-1.44 3.28,-1.44zm8.05 8.9c0.76,0 1.28,-0.29 1.57,-0.87 0.28,-0.58 0.43,-1.22 0.43,-1.93 0,-0.64 -0.1,-1.16 -0.31,-1.56 -0.32,-0.63 -0.88,-0.95 -1.67,-0.95 -0.7,0 -1.21,0.27 -1.53,0.81 -0.32,0.54 -0.48,1.18 -0.48,1.94 0,0.73 0.16,1.34 0.48,1.82 0.32,0.49 0.83,0.73 1.52,0.73zm0.04 -6.3c0.88,0 1.63,0.29 2.24,0.88 0.61,0.59 0.91,1.45 0.91,2.59 0,1.1 -0.27,2.01 -0.8,2.73 -0.54,0.72 -1.37,1.08 -2.5,1.08 -0.94,0 -1.69,-0.32 -2.24,-0.95 -0.55,-0.64 -0.83,-1.49 -0.83,-2.56 0,-1.15 0.29,-2.06 0.87,-2.75 0.58,-0.68 1.37,-1.02 2.35,-1.02zm4.52 0.2l1.14 0 0 0.97c0.27,-0.34 0.52,-0.58 0.74,-0.74 0.38,-0.26 0.81,-0.39 1.29,-0.39 0.55,0 0.98,0.13 1.32,0.4 0.19,0.15 0.36,0.38 0.51,0.68 0.25,-0.37 0.56,-0.64 0.9,-0.81 0.34,-0.18 0.73,-0.27 1.16,-0.27 0.92,0 1.55,0.33 1.88,1 0.18,0.36 0.27,0.84 0.27,1.44l0 4.55 -1.19 0 0 -4.75c0,-0.46 -0.12,-0.77 -0.34,-0.94 -0.23,-0.17 -0.51,-0.26 -0.83,-0.26 -0.45,0 -0.84,0.15 -1.17,0.45 -0.33,0.3 -0.49,0.81 -0.49,1.52l0 3.98 -1.17 0 0 -4.47c0,-0.46 -0.06,-0.8 -0.17,-1.02 -0.17,-0.32 -0.5,-0.48 -0.98,-0.48 -0.43,0 -0.83,0.17 -1.18,0.5 -0.36,0.34 -0.53,0.95 -0.53,1.83l0 3.63 -1.15 0 0 -6.84zm13.78 6.07c0.54,0 0.98,-0.23 1.34,-0.68 0.35,-0.45 0.53,-1.12 0.53,-2.01 0,-0.55 -0.08,-1.01 -0.24,-1.4 -0.3,-0.75 -0.84,-1.13 -1.64,-1.13 -0.8,0 -1.34,0.4 -1.64,1.19 -0.16,0.43 -0.24,0.97 -0.24,1.62 0,0.53 0.08,0.98 0.24,1.35 0.3,0.71 0.84,1.06 1.64,1.06zm-2.98 -6.04l1.12 0 0 0.91c0.23,-0.31 0.48,-0.55 0.75,-0.72 0.39,-0.26 0.84,-0.38 1.37,-0.38 0.78,0 1.43,0.3 1.97,0.89 0.54,0.59 0.81,1.44 0.81,2.54 0,1.49 -0.39,2.56 -1.17,3.19 -0.49,0.41 -1.07,0.61 -1.72,0.61 -0.52,0 -0.95,-0.11 -1.3,-0.34 -0.2,-0.13 -0.43,-0.35 -0.68,-0.66l0 3.49 -1.15 0 0 -9.54zm8.51 -0.03l0 4.54c0,0.35 0.05,0.63 0.17,0.86 0.2,0.41 0.59,0.61 1.14,0.61 0.8,0 1.35,-0.36 1.64,-1.07 0.16,-0.38 0.24,-0.91 0.24,-1.58l0 -3.36 1.15 0 0 6.84 -1.09 0 0.01 -1.01c-0.15,0.26 -0.33,0.48 -0.56,0.66 -0.44,0.36 -0.97,0.54 -1.6,0.54 -0.97,0 -1.64,-0.32 -1.99,-0.98 -0.19,-0.35 -0.29,-0.82 -0.29,-1.4l0 -4.65 1.18 0zm6.36 -1.91l1.16 0 0 1.91 1.09 0 0 0.94 -1.09 0 0 4.47c0,0.24 0.08,0.4 0.24,0.48 0.09,0.05 0.24,0.07 0.45,0.07 0.05,0 0.12,-0 0.18,-0 0.06,-0 0.14,-0.01 0.22,-0.02l0 0.91c-0.13,0.04 -0.27,0.07 -0.41,0.08 -0.14,0.02 -0.3,0.03 -0.46,0.03 -0.54,0 -0.9,-0.14 -1.09,-0.41 -0.19,-0.27 -0.29,-0.63 -0.29,-1.07l0 -4.53 -0.93 0 0 -0.94 0.93 0 0 -1.91zm6.25 1.76c0.49,0 0.96,0.11 1.41,0.34 0.46,0.23 0.8,0.52 1.04,0.88 0.23,0.35 0.38,0.75 0.46,1.21 0.07,0.32 0.1,0.82 0.1,1.51l-5.01 0c0.02,0.69 0.19,1.25 0.49,1.67 0.31,0.42 0.78,0.63 1.42,0.63 0.6,0 1.08,-0.2 1.44,-0.59 0.2,-0.23 0.35,-0.5 0.43,-0.8l1.13 0c-0.03,0.25 -0.13,0.53 -0.3,0.84 -0.17,0.31 -0.36,0.56 -0.56,0.76 -0.35,0.34 -0.78,0.57 -1.3,0.69 -0.28,0.07 -0.59,0.1 -0.94,0.1 -0.85,0 -1.57,-0.31 -2.17,-0.93 -0.59,-0.62 -0.89,-1.49 -0.89,-2.6 0,-1.1 0.3,-1.99 0.89,-2.68 0.6,-0.69 1.38,-1.03 2.34,-1.03zm1.83 3.03c-0.05,-0.5 -0.16,-0.9 -0.32,-1.19 -0.32,-0.55 -0.84,-0.83 -1.58,-0.83 -0.53,0 -0.97,0.19 -1.33,0.57 -0.36,0.38 -0.55,0.87 -0.57,1.45l3.8 0zm2.62 -2.88l1.09 0 0 1.18c0.09,-0.23 0.31,-0.51 0.66,-0.84 0.35,-0.33 0.75,-0.5 1.21,-0.5 0.02,0 0.06,0 0.11,0.01 0.05,0 0.14,0.01 0.26,0.03l0 1.21c-0.07,-0.01 -0.13,-0.02 -0.19,-0.02 -0.06,-0 -0.12,-0.01 -0.19,-0.01 -0.58,0 -1.02,0.19 -1.33,0.56 -0.31,0.37 -0.47,0.8 -0.47,1.29l0 3.94 -1.15 0 0 -6.84zm14.71 -2.54l0 1.12 -3.16 0 0 8.27 -1.29 0 0 -8.27 -3.16 0 0 -1.12 7.61 0zm0.56 2.54l1.09 0 0 1.18c0.09,-0.23 0.31,-0.51 0.66,-0.84 0.35,-0.33 0.75,-0.5 1.21,-0.5 0.02,0 0.06,0 0.11,0.01 0.05,0 0.14,0.01 0.26,0.03l0 1.21c-0.07,-0.01 -0.13,-0.02 -0.19,-0.02 -0.06,-0 -0.12,-0.01 -0.19,-0.01 -0.58,0 -1.03,0.19 -1.33,0.56 -0.31,0.37 -0.47,0.8 -0.47,1.29l0 3.94 -1.15 0 0 -6.84zm5.21 5.02c0,0.33 0.12,0.59 0.36,0.78 0.24,0.19 0.53,0.29 0.86,0.29 0.4,0 0.8,-0.09 1.17,-0.28 0.64,-0.31 0.96,-0.82 0.96,-1.53l0 -0.93c-0.14,0.09 -0.32,0.17 -0.54,0.22 -0.22,0.06 -0.44,0.1 -0.65,0.13l-0.7 0.09c-0.42,0.06 -0.73,0.14 -0.94,0.26 -0.35,0.2 -0.53,0.52 -0.53,0.96zm2.78 -2.32c0.26,-0.04 0.44,-0.15 0.53,-0.33 0.05,-0.1 0.08,-0.25 0.08,-0.44 0,-0.39 -0.14,-0.68 -0.42,-0.85 -0.28,-0.18 -0.68,-0.27 -1.2,-0.27 -0.6,0 -1.03,0.16 -1.28,0.49 -0.14,0.18 -0.23,0.45 -0.27,0.8l-1.08 0c0.02,-0.84 0.3,-1.43 0.82,-1.76 0.53,-0.33 1.14,-0.49 1.83,-0.49 0.8,0 1.46,0.15 1.96,0.46 0.5,0.31 0.75,0.78 0.75,1.43l0 3.94c0,0.12 0.03,0.22 0.07,0.29 0.05,0.07 0.15,0.11 0.31,0.11 0.05,0 0.11,-0 0.17,-0.01 0.07,-0.01 0.13,-0.02 0.21,-0.03l0 0.85c-0.18,0.05 -0.32,0.08 -0.41,0.1 -0.09,0.01 -0.22,0.02 -0.38,0.02 -0.4,0 -0.68,-0.14 -0.86,-0.42 -0.09,-0.15 -0.16,-0.36 -0.2,-0.63 -0.23,0.31 -0.57,0.57 -1.01,0.8 -0.44,0.23 -0.92,0.34 -1.45,0.34 -0.63,0 -1.15,-0.19 -1.55,-0.58 -0.4,-0.38 -0.6,-0.87 -0.6,-1.45 0,-0.63 0.2,-1.13 0.6,-1.48 0.39,-0.35 0.92,-0.56 1.56,-0.65l1.83 -0.23zm3.61 -2.66l1.17 0 0 6.81 -1.17 0 0 -6.81zm0 -2.57l1.17 0 0 1.3 -1.17 0 0 -1.3zm2.91 2.54l1.09 0 0 0.97c0.32,-0.4 0.66,-0.69 1.03,-0.86 0.36,-0.18 0.77,-0.26 1.21,-0.26 0.97,0 1.63,0.34 1.97,1.02 0.19,0.37 0.28,0.9 0.28,1.59l0 4.39 -1.17 0 0 -4.31c0,-0.42 -0.06,-0.75 -0.19,-1.01 -0.21,-0.43 -0.57,-0.64 -1.11,-0.64 -0.27,0 -0.5,0.03 -0.67,0.08 -0.32,0.09 -0.59,0.28 -0.83,0.56 -0.19,0.23 -0.32,0.46 -0.37,0.7 -0.06,0.24 -0.09,0.58 -0.09,1.03l0 3.58 -1.15 0 0 -6.84zm7.28 0.03l1.17 0 0 6.81 -1.17 0 0 -6.81zm0 -2.57l1.17 0 0 1.3 -1.17 0 0 -1.3zm2.91 2.54l1.09 0 0 0.97c0.32,-0.4 0.66,-0.69 1.03,-0.86 0.36,-0.18 0.77,-0.26 1.21,-0.26 0.97,0 1.63,0.34 1.97,1.02 0.19,0.37 0.28,0.9 0.28,1.59l0 4.39 -1.17 0 0 -4.31c0,-0.42 -0.06,-0.75 -0.19,-1.01 -0.2,-0.43 -0.57,-0.64 -1.11,-0.64 -0.27,0 -0.5,0.03 -0.67,0.08 -0.32,0.09 -0.59,0.28 -0.83,0.56 -0.19,0.23 -0.32,0.46 -0.37,0.7 -0.06,0.24 -0.09,0.58 -0.09,1.03l0 3.58 -1.15 0 0 -6.84zm9.69 -0.12c0.54,0 1.01,0.13 1.41,0.39 0.22,0.15 0.44,0.37 0.66,0.65l0 -0.86 1.06 0 0 6.22c0,0.87 -0.13,1.56 -0.38,2.06 -0.48,0.93 -1.38,1.39 -2.7,1.39 -0.74,0 -1.36,-0.17 -1.86,-0.5 -0.5,-0.33 -0.78,-0.85 -0.84,-1.55l1.17 0c0.05,0.31 0.17,0.54 0.33,0.71 0.26,0.26 0.67,0.38 1.23,0.38 0.88,0 1.46,-0.31 1.73,-0.93 0.16,-0.37 0.24,-1.02 0.22,-1.96 -0.23,0.35 -0.51,0.61 -0.83,0.78 -0.32,0.17 -0.75,0.25 -1.28,0.25 -0.74,0 -1.39,-0.26 -1.95,-0.79 -0.56,-0.53 -0.83,-1.4 -0.83,-2.61 0,-1.15 0.28,-2.04 0.84,-2.68 0.56,-0.64 1.24,-0.96 2.03,-0.96zm2.07 3.51c0,-0.85 -0.17,-1.48 -0.52,-1.88 -0.35,-0.41 -0.79,-0.61 -1.33,-0.61 -0.81,0 -1.36,0.38 -1.66,1.14 -0.16,0.4 -0.24,0.94 -0.24,1.59 0,0.77 0.16,1.36 0.47,1.76 0.31,0.4 0.73,0.6 1.26,0.6 0.83,0 1.41,-0.37 1.74,-1.12 0.19,-0.42 0.28,-0.91 0.28,-1.48zm10.54 -6.19c1.19,0 2.11,0.31 2.77,0.94 0.66,0.63 1.02,1.34 1.09,2.13l-1.24 0c-0.14,-0.6 -0.42,-1.08 -0.84,-1.44 -0.42,-0.35 -1.01,-0.53 -1.77,-0.53 -0.92,0 -1.67,0.33 -2.24,0.97 -0.57,0.65 -0.85,1.64 -0.85,2.99 0,1.1 0.26,1.99 0.77,2.67 0.51,0.68 1.28,1.03 2.3,1.03 0.93,0 1.65,-0.36 2.14,-1.08 0.26,-0.38 0.45,-0.88 0.58,-1.49l1.24 0c-0.11,0.99 -0.48,1.82 -1.1,2.49 -0.75,0.8 -1.75,1.21 -3.02,1.21 -1.09,0 -2.01,-0.33 -2.75,-0.99 -0.98,-0.87 -1.46,-2.22 -1.46,-4.04 0,-1.38 0.37,-2.52 1.1,-3.41 0.79,-0.96 1.88,-1.44 3.28,-1.44zm8.19 2.64c0.49,0 0.96,0.11 1.41,0.34 0.46,0.23 0.8,0.52 1.04,0.88 0.23,0.35 0.38,0.75 0.46,1.21 0.07,0.32 0.1,0.82 0.1,1.51l-5.02 0c0.02,0.69 0.19,1.25 0.49,1.67 0.31,0.42 0.78,0.63 1.42,0.63 0.6,0 1.08,-0.2 1.44,-0.59 0.2,-0.23 0.35,-0.5 0.43,-0.8l1.13 0c-0.03,0.25 -0.13,0.53 -0.3,0.84 -0.17,0.31 -0.36,0.56 -0.56,0.76 -0.35,0.34 -0.78,0.57 -1.3,0.69 -0.28,0.07 -0.59,0.1 -0.94,0.1 -0.85,0 -1.57,-0.31 -2.17,-0.93 -0.59,-0.62 -0.89,-1.49 -0.89,-2.6 0,-1.1 0.3,-1.99 0.89,-2.68 0.6,-0.69 1.38,-1.03 2.34,-1.03zm1.83 3.03c-0.05,-0.5 -0.15,-0.9 -0.32,-1.19 -0.32,-0.55 -0.84,-0.83 -1.58,-0.83 -0.53,0 -0.97,0.19 -1.33,0.57 -0.36,0.38 -0.55,0.87 -0.57,1.45l3.8 0zm2.59 -2.88l1.09 0 0 0.97c0.32,-0.4 0.66,-0.69 1.03,-0.86 0.36,-0.18 0.77,-0.26 1.21,-0.26 0.97,0 1.63,0.34 1.97,1.02 0.19,0.37 0.28,0.9 0.28,1.59l0 4.39 -1.17 0 0 -4.31c0,-0.42 -0.06,-0.75 -0.19,-1.01 -0.21,-0.43 -0.57,-0.64 -1.11,-0.64 -0.27,0 -0.5,0.03 -0.67,0.08 -0.32,0.09 -0.59,0.28 -0.83,0.56 -0.19,0.23 -0.32,0.46 -0.37,0.7 -0.06,0.24 -0.09,0.58 -0.09,1.03l0 3.58 -1.15 0 0 -6.84zm7.51 -1.91l1.16 0 0 1.91 1.09 0 0 0.94 -1.09 0 0 4.47c0,0.24 0.08,0.4 0.24,0.48 0.09,0.05 0.24,0.07 0.45,0.07 0.05,0 0.12,-0 0.18,-0 0.06,-0 0.14,-0.01 0.22,-0.02l0 0.91c-0.13,0.04 -0.27,0.07 -0.41,0.08 -0.14,0.02 -0.3,0.03 -0.46,0.03 -0.54,0 -0.9,-0.14 -1.09,-0.41 -0.19,-0.27 -0.29,-0.63 -0.29,-1.07l0 -4.53 -0.93 0 0 -0.94 0.93 0 0 -1.91zm6.25 1.76c0.49,0 0.96,0.11 1.41,0.34 0.46,0.23 0.8,0.52 1.04,0.88 0.23,0.35 0.38,0.75 0.46,1.21 0.07,0.32 0.1,0.82 0.1,1.51l-5.01 0c0.02,0.69 0.19,1.25 0.49,1.67 0.31,0.42 0.78,0.63 1.42,0.63 0.6,0 1.08,-0.2 1.44,-0.59 0.2,-0.23 0.35,-0.5 0.43,-0.8l1.13 0c-0.03,0.25 -0.13,0.53 -0.3,0.84 -0.17,0.31 -0.36,0.56 -0.56,0.76 -0.35,0.34 -0.78,0.57 -1.3,0.69 -0.28,0.07 -0.59,0.1 -0.94,0.1 -0.85,0 -1.57,-0.31 -2.17,-0.93 -0.59,-0.62 -0.89,-1.49 -0.89,-2.6 0,-1.1 0.3,-1.99 0.89,-2.68 0.6,-0.69 1.38,-1.03 2.34,-1.03zm1.83 3.03c-0.05,-0.5 -0.16,-0.9 -0.32,-1.19 -0.32,-0.55 -0.84,-0.83 -1.58,-0.83 -0.53,0 -0.97,0.19 -1.33,0.57 -0.36,0.38 -0.55,0.87 -0.57,1.45l3.8 0zm2.62 -2.88l1.09 0 0 1.18c0.09,-0.23 0.31,-0.51 0.66,-0.84 0.35,-0.33 0.75,-0.5 1.21,-0.5 0.02,0 0.06,0 0.11,0.01 0.05,0 0.14,0.01 0.26,0.03l0 1.21c-0.07,-0.01 -0.13,-0.02 -0.19,-0.02 -0.06,-0 -0.12,-0.01 -0.19,-0.01 -0.58,0 -1.02,0.19 -1.33,0.56 -0.31,0.37 -0.47,0.8 -0.47,1.29l0 3.94 -1.15 0 0 -6.84z"/>
   <path class="fil2" d="M49.99 89.42l61.5 0c0.51,0 0.95,0.29 1.14,0.76l7.61 18.46c0.06,0.14 0.09,0.28 0.09,0.43l0.08 2.56c0.01,0.35 -0.11,0.65 -0.35,0.9 -0.24,0.25 -0.54,0.38 -0.89,0.38l-69.2 0 19.86 -0.95 48.57 -0.44 0.13 -2.68 -73.94 0c-0.41,0 -0.76,-0.18 -1,-0.51 -0.24,-0.33 -0.3,-0.72 -0.18,-1.1l5.39 -16.96c0.17,-0.52 0.63,-0.86 1.18,-0.86zm0.95 1.91l-0.77 2.51 3.51 0 0.64 -2.51 -3.37 0zm-1.12 3.65l-0.86 2.81 3.72 0 0.71 -2.81 -3.57 0zm-1.21 3.94l-0.87 2.82 3.93 0 0.72 -2.82 -3.78 -0zm-1.21 3.95l-0.97 3.15 4.16 0 0.8 -3.14 -3.99 -0zm4.36 3.15l4.21 0 0.66 -3.14 -4.07 -0 -0.8 3.14zm5.36 0l48.93 0 -0.85 -3.12 -47.43 -0.02 -0.66 3.14zm50.11 0l4.29 0 -1.12 -3.11 -4.01 -0 0.85 3.12zm5.49 0l3.85 0 -1.22 -3.11 -3.75 -0 1.12 3.11zm2.19 -4.24l-1.11 -2.82 -3.63 -0 1.02 2.82 3.72 0zm-1.55 -3.95l-1.11 -2.84 -3.51 0 1.02 2.84 3.59 0zm-1.56 -3.97l-0.99 -2.51 -3.39 0 0.91 2.51 3.47 0zm-5.58 -2.51l-3.33 0 0.68 2.51 3.56 0 -0.91 -2.51zm-4.5 0l-3.69 0 0.59 2.51 3.77 0 -0.68 -2.51zm-4.85 0l-3.63 0 0.48 2.51 3.74 0 -0.6 -2.51zm-4.78 0l-3.52 0 0.32 2.51 3.69 0 -0.48 -2.51zm-4.67 0l-3.56 0 0.16 2.51 3.71 0 -0.32 -2.51zm-4.69 0l-3.51 0 0.01 2.51 3.66 0 -0.16 -2.51zm-4.63 0l-3.71 0 -0.06 2.51 3.78 0 -0.01 -2.51zm-4.84 0l-3.56 0 -0.24 2.51 3.74 0 0.06 -2.51zm-4.7 0l-3.62 0 -0.34 2.51 3.72 0 0.24 -2.51zm-4.76 0l-3.62 0 -0.53 2.51 3.8 0 0.34 -2.51zm-4.77 0l-3.56 0 -0.64 2.51 3.67 0 0.53 -2.51zm10.32 3.65l-0.27 2.82 4.01 0 0.07 -2.82 -3.82 0zm-0.38 3.95l-0.27 2.82 4.29 0 0.07 -2.82 -4.09 -0zm-1.4 2.82l0.27 -2.82 -3.92 -0 -0.38 2.82 4.04 0zm0.38 -3.95l0.27 -2.82 -3.76 0 -0.38 2.81 3.88 0zm11.29 -2.82l0.01 2.82 3.9 0 -0.18 -2.82 -3.73 0zm0.01 3.95l0.01 2.82 4.14 0 -0.18 -2.82 -3.97 -0zm-1.12 2.82l-0.01 -2.82 -3.92 -0 -0.07 2.82 4 0zm-0.01 -3.95l-0.01 -2.82 -3.81 0 -0.07 2.82 3.89 0zm-24.27 -0.01l3.84 0 0.59 -2.81 -3.72 0 -0.71 2.81zm5 0l4.09 0 0.38 -2.81 -3.88 0 -0.59 2.81zm25.43 0.01l3.96 0 -0.35 -2.83 -3.78 0 0.18 2.82zm5.1 0l3.94 0 -0.54 -2.83 -3.76 0 0.36 2.83zm5.09 0l3.93 0 -0.67 -2.83 -3.8 0 0.54 2.83zm5.09 0l8.99 0 -1.02 -2.84 -8.64 0 0.67 2.83zm9.4 1.13l-3.66 -0 0.77 2.82 3.91 0 -1.02 -2.82zm-4.83 -0l-4.3 -0 0.67 2.82 4.4 0 -0.77 -2.82zm-5.47 -0l-3.98 -0 0.54 2.82 4.11 0 -0.67 -2.82zm-5.13 -0l-4.01 -0 0.35 2.82 4.2 0 -0.54 -2.82zm-5.16 -0l-4.03 -0 0.18 2.82 4.21 0 -0.35 -2.82zm-25.6 -0.01l-4.17 -0 -0.59 2.82 4.38 0 0.38 -2.82zm-5.33 -0l-3.89 -0 -0.71 2.82 4.02 0 0.59 -2.82z"/>
   <path class="fil2" d="M91.1 19.16l48.66 -18.98c0.53,-0.21 1.04,-0.23 1.58,-0.07l25.66 7.41c0.81,0.23 1.34,0.94 1.34,1.78l-0.06 68.74c2.7,0 5.81,0.28 8.76,0.94 2.73,0.61 5.32,1.55 7.31,2.9 2.07,1.4 3.52,3.24 3.86,5.61 0.14,0.93 0.1,1.95 -0.15,3.05 -2.02,9.02 -11.73,12.34 -23.89,16.49 -2.67,0.91 -5.46,1.87 -8.25,2.91 -8.29,3.09 -13.09,7.1 -15.84,12.02 -2.76,4.94 -3.47,10.85 -3.55,17.7l-1.26 -0.01c0.08,-7.03 0.83,-13.13 3.71,-18.3 2.89,-5.18 7.9,-9.39 16.51,-12.59 2.88,-1.07 5.64,-2.02 8.29,-2.92 11.78,-4.03 21.19,-7.25 23.06,-15.57 0.21,-0.94 0.25,-1.8 0.13,-2.59 -0.29,-1.97 -1.53,-3.53 -3.32,-4.74 -1.86,-1.26 -4.3,-2.14 -6.88,-2.71 -2.86,-0.64 -5.88,-0.91 -8.48,-0.91l-0.01 10.39c-0,0.85 -0.55,1.56 -1.36,1.79l-25.05 6.92c-0.73,0.2 -1.45,0.08 -2.07,-0.35l-19.93 -13.87 17.61 6.74 0.07 -85.39 -46.44 13.65zm54.62 3.36l17.53 1.79 -0.08 3.65 -17.5 0.95 0.04 -6.39zm1.03 18.02l14.71 1.15 0 1.09 -0 0.04 -14.71 -1.15 0 -1.14zm0 22.67l14.71 -0.04 0 1.13 -14.71 0.04 0 -1.13zm0 -3.16l14.71 -0.04 0 1.13 -14.71 0.04 0 -1.13zm0 -3.21l14.71 0.16 0 1.13 -14.71 -0.16 0 -1.13zm0 -3.2l14.71 0.41 0 1.13 -14.71 -0.41 0 -1.13zm0 -3.26l14.71 0.61 0 1.13 -14.71 -0.61 0 -1.13zm0 -3.36l14.71 0.79 0 1.13 -14.71 -0.79 0 -1.13zm0 -3.36l14.71 1.15 0 1.14 -14.71 -1.15 0 -1.14zm7.75 31.59c1.09,0 1.97,0.88 1.97,1.97 0,1.09 -0.88,1.96 -1.97,1.96 -1.09,0 -1.97,-0.88 -1.97,-1.96 0,-1.09 0.88,-1.97 1.97,-1.97z"/>
   <path class="fil2" d="M42.61 25.45l79.33 0c1.02,0 1.85,0.83 1.85,1.85l0 42.88c0,1.02 -0.83,1.85 -1.85,1.85l-36.35 0 0 1.77c8.07,0.45 14.17,2.48 14.17,4.93 0,2.78 -7.83,5.02 -17.48,5.02 -9.66,0 -17.48,-2.25 -17.48,-5.02 0,-2.45 6.1,-4.49 14.17,-4.93l0 -1.77 -36.35 0c-1.02,0 -1.85,-0.83 -1.85,-1.85l0 -42.88c0,-1.02 0.83,-1.85 1.85,-1.85zm0.59 2.5l78.15 0 0 39.2 -78.15 0 0 -39.2z"/>
   <rect class="fil3" x="135.31" y="143.37" width="1.19" height="3.92" rx="6.18" ry="5.42"/>
   <path id="Windows_logo_-_2012.svg" class="fil4" d="M73.85 41.5l6.89 -0.94 0 6.65 -6.89 0.04 -0.01 -5.75zm6.89 6.47l0.01 6.65 -6.89 -0.95 0 -5.75 6.88 0.04zm0.84 -7.54l9.14 -1.33 0 8.02 -9.14 0.07 0 -6.76zm9.14 7.6l-0 7.98 -9.14 -1.29 -0.01 -6.71 9.15 0.01z"/>
  </g>
 </g>
</svg>
